
<global>
amp_veltrack=50
ampeg_release=0.85
</global>

<group>
group_label=RR1
seq_length=4

<region>
hikey=C4
hivel=127
lokey=C4
lovel=96
offset=607
sample=Bongos_Hands_Hit 1_F_D4_RR1.opus
</region>

<region>
hikey=C4
hivel=95
lokey=C4
lovel=64
offset=635
sample=Bongos_Hands_Hit 1_MF_D4_RR1.opus
</region>

<region>
hikey=C4
hivel=63
lokey=C4
lovel=32
offset=13603
sample=Bongos_Hands_Hit 1_MP_D4_RR1.opus
</region>

<region>
hikey=C4
hivel=31
lokey=C4
lovel=0
offset=14430
sample=Bongos_Hands_Hit 1_P_D4_RR1.opus
</region>

<region>
hivel=127
key=C#4
lovel=96
offset=547
sample=Bongos_Hands_Hit 2_F_C4_RR1.opus
</region>

<region>
hivel=95
key=C#4
lovel=64
offset=633
sample=Bongos_Hands_Hit 2_MF_C4_RR1.opus
</region>

<region>
hivel=63
key=C#4
lovel=32
offset=14004
sample=Bongos_Hands_Hit 2_MP_C4_RR1.opus
</region>

<region>
hivel=31
key=C#4
lovel=0
offset=13451
sample=Bongos_Hands_Hit 2_P_C4_RR1.opus
</region>
</group>

<group>
group_label=RR2
seq_length=4
seq_position=2

<region>
hikey=C4
hivel=127
lokey=C4
lovel=96
offset=527
sample=Bongos_Hands_Hit 1_F_D4_RR2.opus
</region>

<region>
hikey=C4
hivel=95
lokey=C4
lovel=64
offset=12515
sample=Bongos_Hands_Hit 1_MF_D4_RR2.opus
</region>

<region>
hikey=C4
hivel=63
lokey=C4
lovel=32
offset=13933
sample=Bongos_Hands_Hit 1_MP_D4_RR2.opus
</region>

<region>
hikey=C4
hivel=31
lokey=C4
lovel=0
offset=14225
sample=Bongos_Hands_Hit 1_P_D4_RR2.opus
</region>

<region>
hivel=127
key=C#4
lovel=96
offset=605
sample=Bongos_Hands_Hit 2_F_C4_RR2.opus
</region>

<region>
hivel=95
key=C#4
lovel=64
offset=691
sample=Bongos_Hands_Hit 2_MF_C4_RR2.opus
</region>

<region>
hivel=63
key=C#4
lovel=32
offset=12654
sample=Bongos_Hands_Hit 2_MP_C4_RR2.opus
</region>

<region>
hivel=31
key=C#4
lovel=0
offset=14041
sample=Bongos_Hands_Hit 2_P_C4_RR2.opus
</region>
</group>

<group>
group_label=RR3
seq_length=4
seq_position=3

<region>
hikey=C4
hivel=127
lokey=C4
lovel=96
offset=673
sample=Bongos_Hands_Hit 1_F_D4_RR3.opus
</region>

<region>
hikey=C4
hivel=95
lokey=C4
lovel=64
offset=628
sample=Bongos_Hands_Hit 1_MF_D4_RR3.opus
</region>

<region>
hikey=C4
hivel=63
lokey=C4
lovel=32
offset=13531
sample=Bongos_Hands_Hit 1_MP_D4_RR3.opus
</region>

<region>
hikey=C4
hivel=31
lokey=C4
lovel=0
offset=13764
sample=Bongos_Hands_Hit 1_P_D4_RR3.opus
</region>

<region>
hivel=127
key=C#4
lovel=96
offset=650
sample=Bongos_Hands_Hit 2_F_C4_RR3.opus
</region>

<region>
hivel=95
key=C#4
lovel=64
offset=608
sample=Bongos_Hands_Hit 2_MF_C4_RR3.opus
</region>

<region>
hivel=63
key=C#4
lovel=32
offset=11503
sample=Bongos_Hands_Hit 2_MP_C4_RR3.opus
</region>

<region>
hivel=31
key=C#4
lovel=0
offset=13961
sample=Bongos_Hands_Hit 2_P_C4_RR3.opus
</region>
</group>

<group>
group_label=RR4
seq_length=4
seq_position=4

<region>
hikey=C4
hivel=127
lokey=C4
lovel=96
offset=531
sample=Bongos_Hands_Hit 1_F_D4_RR4.opus
</region>

<region>
hikey=C4
hivel=95
lokey=C4
lovel=64
offset=654
sample=Bongos_Hands_Hit 1_MF_D4_RR4.opus
</region>

<region>
hikey=C4
hivel=63
lokey=C4
lovel=32
offset=13933
sample=Bongos_Hands_Hit 1_MP_D4_RR4.opus
</region>

<region>
hikey=C4
hivel=31
lokey=C4
lovel=0
offset=13720
sample=Bongos_Hands_Hit 1_P_D4_RR4.opus
</region>

<region>
hivel=127
key=C#4
lovel=96
offset=544
sample=Bongos_Hands_Hit 2_F_C4_RR4.opus
</region>

<region>
hivel=95
key=C#4
lovel=64
offset=642
sample=Bongos_Hands_Hit 2_MF_C4_RR4.opus
</region>

<region>
hivel=63
key=C#4
lovel=32
offset=13023
sample=Bongos_Hands_Hit 2_MP_C4_RR4.opus
</region>

<region>
hivel=31
key=C#4
lovel=0
offset=12816
sample=Bongos_Hands_Hit 2_P_C4_RR4.opus
</region>
</group>